<?xml version="1.0" encoding="UTF-8"?><svg id="Layer_2" xmlns="http://www.w3.org/2000/svg" viewBox="0 0 1873 769"><defs><style>.cls-1{font-size:30px;}.cls-1,.cls-2,.cls-3,.cls-4,.cls-5,.cls-6{fill:#999;}.cls-1,.cls-3,.cls-5{font-family:LiGothicMed, 'Apple LiGothic';}.cls-2{font-family:KozGoPr6N-Regular-83pv-RKSJ-H, 'Kozuka Gothic Pr6N';}.cls-2,.cls-3{font-size:36px;}.cls-7{fill:#fff;}.cls-5{font-size:21px;}.cls-8{stroke:#999;stroke-linecap:round;stroke-linejoin:round;}.cls-8,.cls-9{fill:none;stroke-width:2px;}.cls-10{fill:#548ca8;opacity:.2;}.cls-6{font-family:AppleSymbols, 'Apple Symbols';font-size:53.39px;}.cls-9{stroke:#ccc;stroke-miterlimit:10;}</style></defs><g id="Layer_2-2"><rect class="cls-7" width="1873" height="769" rx="59.87" ry="59.87"/><path class="cls-10" d="M181.17,129.5H34.83c-7.36,0-13.33-5.97-13.33-13.33V60.41c0-22.6,18.32-40.91,40.91-40.91h118.76c7.36,0,13.33,5.97,13.33,13.33V116.17c0,7.36-5.97,13.33-13.33,13.33Z"/><rect class="cls-10" x="340.5" y="19.5" width="110" height="110" rx="13.33" ry="13.33"/><rect class="cls-10" x="212.5" y="19.5" width="110" height="110" rx="13.33" ry="13.33"/><rect class="cls-10" x="149" y="144" width="110" height="110" rx="13.33" ry="13.33"/><rect class="cls-10" x="21" y="144" width="110" height="110" rx="13.33" ry="13.33"/><rect class="cls-10" x="277" y="144" width="110" height="110" rx="13.33" ry="13.33"/><rect class="cls-10" x="404" y="145" width="110" height="110" rx="13.33" ry="13.33"/><rect class="cls-10" x="532" y="144" width="110" height="110" rx="13.33" ry="13.33"/><rect class="cls-10" x="659" y="144" width="110" height="110" rx="13.33" ry="13.33"/><rect class="cls-10" x="787" y="144" width="110" height="110" rx="13.33" ry="13.33"/><rect class="cls-10" x="914" y="144" width="110" height="110" rx="13.33" ry="13.33"/><rect class="cls-10" x="1042" y="144" width="110" height="110" rx="13.33" ry="13.33"/><rect class="cls-10" x="1170" y="144" width="110" height="110" rx="13.33" ry="13.33"/><rect class="cls-10" x="1297" y="144" width="110" height="110" rx="13.33" ry="13.33"/><rect class="cls-10" x="1425" y="144" width="110" height="110" rx="13.33" ry="13.33"/><rect class="cls-10" x="1551.5" y="143.5" width="110" height="110" rx="13.33" ry="13.33"/><rect class="cls-10" x="213" y="268" width="110" height="110" rx="13.33" ry="13.33"/><rect class="cls-10" x="340" y="268" width="110" height="110" rx="13.33" ry="13.33"/><rect class="cls-10" x="468" y="268" width="110" height="110" rx="13.33" ry="13.33"/><rect class="cls-10" x="596" y="268" width="110" height="110" rx="13.33" ry="13.33"/><rect class="cls-10" x="723" y="268" width="110" height="110" rx="13.33" ry="13.33"/><rect class="cls-10" x="851" y="268" width="110" height="110" rx="13.33" ry="13.33"/><rect class="cls-10" x="979" y="268" width="110" height="110" rx="13.33" ry="13.33"/><rect class="cls-10" x="1106" y="268" width="110" height="110" rx="13.33" ry="13.33"/><rect class="cls-10" x="1233" y="268" width="110" height="110" rx="13.33" ry="13.33"/><rect class="cls-10" x="1360" y="268" width="110" height="110" rx="13.33" ry="13.33"/><rect class="cls-10" x="1488" y="268" width="110" height="110" rx="13.33" ry="13.33"/><rect class="cls-10" x="1616" y="268" width="110" height="110" rx="13.33" ry="13.33"/><rect class="cls-10" x="1744" y="268" width="110" height="110" rx="13.33" ry="13.33"/><rect class="cls-10" x="21.5" y="267.5" width="172.5" height="110" rx="13.33" ry="13.33"/><rect class="cls-10" x="21.5" y="391.5" width="205.5" height="110" rx="13.33" ry="13.33"/><rect class="cls-10" x="246" y="392" width="110" height="110" rx="13.33" ry="13.33"/><rect class="cls-10" x="372" y="392" width="110" height="110" rx="13.33" ry="13.33"/><rect class="cls-10" x="499" y="392" width="110" height="110" rx="13.33" ry="13.33"/><rect class="cls-10" x="627" y="392" width="110" height="110" rx="13.33" ry="13.33"/><rect class="cls-10" x="754" y="392" width="110" height="110" rx="13.33" ry="13.33"/><rect class="cls-10" x="882" y="392" width="110" height="110" rx="13.33" ry="13.33"/><rect class="cls-10" x="1010" y="392" width="110" height="110" rx="13.33" ry="13.33"/><rect class="cls-10" x="1137" y="392" width="110" height="110" rx="13.33" ry="13.33"/><rect class="cls-10" x="1264" y="392" width="110" height="110" rx="13.33" ry="13.33"/><rect class="cls-10" x="436" y="516" width="110" height="110" rx="13.33" ry="13.33"/><rect class="cls-10" x="563" y="516" width="110" height="110" rx="13.33" ry="13.33"/><rect class="cls-10" x="691" y="516" width="110" height="110" rx="13.33" ry="13.33"/><rect class="cls-10" x="818" y="516" width="110" height="110" rx="13.33" ry="13.33"/><rect class="cls-10" x="946" y="516" width="110" height="110" rx="13.33" ry="13.33"/><rect class="cls-10" x="1074" y="516" width="110" height="110" rx="13.33" ry="13.33"/><rect class="cls-10" x="1201" y="516" width="110" height="110" rx="13.33" ry="13.33"/><rect class="cls-10" x="1328" y="516" width="110" height="110" rx="13.33" ry="13.33"/><rect class="cls-10" x="1456" y="516" width="110" height="110" rx="13.33" ry="13.33"/><rect class="cls-10" x="1392" y="392" width="110" height="110" rx="13.33" ry="13.33"/><rect class="cls-10" x="1519" y="392" width="110" height="110" rx="13.33" ry="13.33"/><rect class="cls-10" x="1647" y="392" width="206" height="110" rx="13.33" ry="13.33"/><rect class="cls-10" x="22" y="516" width="269" height="110" rx="13.33" ry="13.33"/><rect class="cls-10" x="309" y="516" width="110" height="110" rx="13.33" ry="13.33"/><rect class="cls-10" x="148.5" y="639.5" width="110" height="110" rx="13.33" ry="13.33"/><rect class="cls-10" x="277" y="640" width="110" height="110" rx="13.33" ry="13.33"/><rect class="cls-10" x="405" y="640" width="142" height="110" rx="13.33" ry="13.33"/><rect class="cls-10" x="564" y="640" width="620" height="110" rx="13.33" ry="13.33"/><path class="cls-10" d="M118.17,749.5H61.28c-21.97,0-39.78-17.81-39.78-39.78v-56.89c0-7.36,5.97-13.33,13.33-13.33H118.17c7.36,0,13.33,5.97,13.33,13.33v83.34c0,7.36-5.97,13.33-13.33,13.33Z"/><rect class="cls-10" x="1201.5" y="639.5" width="142" height="110" rx="13.33" ry="13.33"/><rect class="cls-10" x="1360.5" y="639.5" width="110" height="110" rx="13.33" ry="13.33"/><rect class="cls-10" x="1488.5" y="639.5" width="110" height="110" rx="13.33" ry="13.33"/><rect class="cls-10" x="1615.5" y="639.5" width="110" height="110" rx="13.33" ry="13.33"/><path class="cls-10" d="M1810.93,749.5h-54.1c-7.36,0-13.33-5.97-13.33-13.33v-83.34c0-7.36,5.97-13.33,13.33-13.33h83.34c7.36,0,13.33,5.97,13.33,13.33v54.1c0,23.51-19.06,42.57-42.57,42.57Z"/><rect class="cls-10" x="1583" y="515.5" width="269.5" height="110" rx="13.33" ry="13.33"/><rect class="cls-10" x="1680" y="143.5" width="173.5" height="110" rx="13.33" ry="13.33"/><rect class="cls-10" x="467.5" y="19.5" width="110" height="110" rx="13.33" ry="13.33"/><rect class="cls-10" x="595.5" y="19.5" width="110" height="110" rx="13.33" ry="13.33"/><rect class="cls-10" x="722.5" y="19.5" width="110" height="110" rx="13.33" ry="13.33"/><rect class="cls-10" x="850.5" y="19.5" width="110" height="110" rx="13.33" ry="13.33"/><rect class="cls-10" x="977.5" y="19.5" width="110" height="110" rx="13.33" ry="13.33"/><rect class="cls-10" x="1105.5" y="19.5" width="110" height="110" rx="13.33" ry="13.33"/><rect class="cls-10" x="1233.5" y="19.5" width="110" height="110" rx="13.33" ry="13.33"/><rect class="cls-10" x="1360.5" y="19.5" width="110" height="110" rx="13.33" ry="13.33"/><rect class="cls-10" x="1488.5" y="19.5" width="110" height="110" rx="13.33" ry="13.33"/><rect class="cls-10" x="1615.5" y="19.5" width="110" height="110" rx="13.33" ry="13.33"/><path class="cls-10" d="M1839.17,129.5h-83.34c-7.36,0-13.33-5.97-13.33-13.33V32.83c0-7.36,5.97-13.33,13.33-13.33h56.76c22.04,0,39.9,17.87,39.9,39.9v56.76c0,7.36-5.97,13.33-13.33,13.33Z"/><text class="cls-1" transform="translate(41.94 112.13)"><tspan x="0" y="0">esc</tspan></text><text class="cls-5" transform="translate(255.39 112.13)"><tspan x="0" y="0">F1</tspan></text><text class="cls-5" transform="translate(386.5 112.13)"><tspan x="0" y="0">F2</tspan></text><text class="cls-5" transform="translate(513.5 112.13)"><tspan x="0" y="0">F3</tspan></text><text class="cls-5" transform="translate(641.5 112.13)"><tspan x="0" y="0">F4</tspan></text><text class="cls-5" transform="translate(768.5 112.13)"><tspan x="0" y="0">F5</tspan></text><text class="cls-5" transform="translate(896.5 112.13)"><tspan x="0" y="0">F6</tspan></text><text class="cls-5" transform="translate(1023.5 112.13)"><tspan x="0" y="0">F7</tspan></text><text class="cls-5" transform="translate(1151.5 112.13)"><tspan x="0" y="0">F8</tspan></text><text class="cls-5" transform="translate(1279.5 112.13)"><tspan x="0" y="0">F9</tspan></text><text class="cls-5" transform="translate(1401.88 112.13)"><tspan x="0" y="0">F10</tspan></text><text class="cls-5" transform="translate(1529.88 112.13)"><tspan x="0" y="0">F11</tspan></text><text class="cls-5" transform="translate(1656.88 112.13)"><tspan x="0" y="0">F12</tspan></text><text class="cls-1" transform="translate(41.94 355.13)"><tspan x="0" y="0">tab</tspan></text><text class="cls-1" transform="translate(41.94 481.13)"><tspan x="0" y="0">caps lock</tspan></text><text class="cls-1" transform="translate(41.94 606.13)"><tspan x="0" y="0">shift</tspan></text><text class="cls-1" transform="translate(168.04 737.13)"><tspan x="0" y="0">control</tspan></text><text class="cls-1" transform="translate(299.05 737.13)"><tspan x="0" y="0">option</tspan></text><text class="cls-1" transform="translate(424.75 737.13)"><tspan x="0" y="0">command</tspan></text><text class="cls-1" transform="translate(1382.55 737.13)"><tspan x="0" y="0">option</tspan></text><text class="cls-1" transform="translate(1221.25 737.13)"><tspan x="0" y="0">command</tspan></text><text class="cls-1" transform="translate(93.94 674.13)"><tspan x="0" y="0">fn</tspan></text><circle class="cls-4" cx="47" cy="416" r="4"/><polygon class="cls-4" points="1535 694.5 1550.41 688.15 1550.41 700.85 1535 694.5"/><polygon class="cls-4" points="1670.3 658.59 1676.65 674 1663.94 674 1670.3 658.59"/><polygon class="cls-4" points="1670.3 730 1676.65 714.59 1663.94 714.59 1670.3 730"/><polygon class="cls-4" points="1806.2 694.5 1790.8 688.15 1790.8 700.85 1806.2 694.5"/><line class="cls-9" x1="1615.5" y1="694.5" x2="1725.5" y2="694.5"/><text class="cls-1" transform="translate(1790.49 605.79)"><tspan x="0" y="0">shift</tspan></text><text class="cls-1" transform="translate(1772.08 480.79)"><tspan x="0" y="0">return</tspan></text><text class="cls-1" transform="translate(1772.42 236.79)"><tspan x="0" y="0">delete</tspan></text><text class="cls-3" transform="translate(195.63 236.36)"><tspan x="0" y="0">1</tspan></text><text class="cls-3" transform="translate(70.49 246.4)"><tspan x="0" y="0">`</tspan></text><text class="cls-3" transform="translate(67.63 188.36)"><tspan x="0" y="0">~</tspan></text><text class="cls-3" transform="translate(199.28 188.36)"><tspan x="0" y="0">!</tspan></text><text class="cls-3" transform="translate(317.87 188.36)"><tspan x="0" y="0">@</tspan></text><text class="cls-3" transform="translate(450.63 188.36)"><tspan x="0" y="0">#</tspan></text><text class="cls-2" transform="translate(499.63 678.36)"><tspan x="0" y="0">⌘</tspan></text><text class="cls-2" transform="translate(214.7 682.36)"><tspan x="0" y="0">^</tspan></text><text class="cls-6" transform="translate(334.62 675.58) scale(.9 1)"><tspan x="0" y="0">⌥</tspan></text><text class="cls-6" transform="translate(1382.55 675.58) scale(.9 1)"><tspan x="0" y="0">⌥</tspan></text><text class="cls-2" transform="translate(1221.63 678.36)"><tspan x="0" y="0">⌘</tspan></text><text class="cls-3" transform="translate(578.63 188.36)"><tspan x="0" y="0">$</tspan></text><text class="cls-3" transform="translate(702.82 188.36)"><tspan x="0" y="0">%</tspan></text><text class="cls-3" transform="translate(833.63 188.36)"><tspan x="0" y="0">^</tspan></text><text class="cls-3" transform="translate(958.83 188.36)"><tspan x="0" y="0">&amp;</tspan></text><text class="cls-3" transform="translate(1090.95 188.36)"><tspan x="0" y="0">*</tspan></text><text class="cls-3" transform="translate(1221.08 188.36)"><tspan x="0" y="0">(</tspan></text><text class="cls-3" transform="translate(1348.08 188.36)"><tspan x="0" y="0">)</tspan></text><text class="cls-3" transform="translate(1475.21 230.4)"><tspan x="0" y="0">-</tspan></text><text class="cls-3" transform="translate(1472.76 177.36)"><tspan x="0" y="0">_</tspan></text><text class="cls-3" transform="translate(1598.13 230.4)"><tspan x="0" y="0">=</tspan></text><text class="cls-3" transform="translate(1598.13 188.36)"><tspan x="0" y="0">+</tspan></text><text class="cls-3" transform="translate(1538.82 356.9)"><tspan x="0" y="0">[</tspan></text><text class="cls-3" transform="translate(1537.37 311.36)"><tspan x="0" y="0">{</tspan></text><text class="cls-3" transform="translate(1442.81 473.9)"><tspan x="0" y="0">;</tspan></text><text class="cls-3" transform="translate(1442.81 432.36)"><tspan x="0" y="0">:</tspan></text><text class="cls-3" transform="translate(1553 481.9)"><tspan x="0" y="0">‘</tspan></text><text class="cls-3" transform="translate(1551 441.36)"><tspan x="0" y="0">“</tspan></text><text class="cls-3" transform="translate(1666.82 357.4)"><tspan x="0" y="0">]</tspan></text><text class="cls-3" transform="translate(1665.37 311.36)"><tspan x="0" y="0">}</tspan></text><text class="cls-3" transform="translate(1791.19 357.4)"><tspan x="0" y="0">\</tspan></text><text class="cls-3" transform="translate(1791.21 311.36)"><tspan x="0" y="0">|</tspan></text><text class="cls-3" transform="translate(256.66 333.93)"><tspan x="0" y="0">Q</tspan></text><text class="cls-3" transform="translate(380.83 333.93)"><tspan x="0" y="0">W</tspan></text><text class="cls-3" transform="translate(515.93 333.93)"><tspan x="0" y="0">E</tspan></text><text class="cls-3" transform="translate(642.92 333.93)"><tspan x="0" y="0">R</tspan></text><text class="cls-3" transform="translate(771.47 333.93)"><tspan x="0" y="0">T</tspan></text><text class="cls-3" transform="translate(897.5 333.93)"><tspan x="0" y="0">Y</tspan></text><text class="cls-3" transform="translate(1024.44 333.93)"><tspan x="0" y="0">U</tspan></text><text id="I" class="cls-3" transform="translate(1157.33 333.93)"><tspan x="0" y="0">I</tspan></text><text class="cls-3" transform="translate(1276.66 333.93)"><tspan x="0" y="0">O</tspan></text><text class="cls-3" transform="translate(1407.35 333.93)"><tspan x="0" y="0">P</tspan></text><text class="cls-3" transform="translate(291.21 458.93)"><tspan x="0" y="0">A</tspan></text><text class="cls-3" transform="translate(419.39 458.93)"><tspan x="0" y="0">S</tspan></text><text class="cls-3" transform="translate(544.64 458.93)"><tspan x="0" y="0">D</tspan></text><text class="cls-3" transform="translate(675.29 458.93)"><tspan x="0" y="0">F</tspan></text><text class="cls-3" transform="translate(798.29 458.93)"><tspan x="0" y="0">G</tspan></text><text class="cls-3" transform="translate(927.23 458.93)"><tspan x="0" y="0">H</tspan></text><text class="cls-3" transform="translate(1059.69 458.93)"><tspan x="0" y="0">J</tspan></text><text id="I-2" class="cls-3" transform="translate(1182.82 458.93)"><tspan x="0" y="0">K</tspan></text><text class="cls-3" transform="translate(1313.08 458.93)"><tspan x="0" y="0">L</tspan></text><text class="cls-3" transform="translate(355.67 581.93)"><tspan x="0" y="0">Z</tspan></text><text class="cls-3" transform="translate(481.96 581.93)"><tspan x="0" y="0">X</tspan></text><text class="cls-3" transform="translate(609.29 581.93)"><tspan x="0" y="0">C</tspan></text><text class="cls-3" transform="translate(736.73 581.93)"><tspan x="0" y="0">V</tspan></text><text class="cls-3" transform="translate(864.99 581.93)"><tspan x="0" y="0">B</tspan></text><text class="cls-3" transform="translate(990 581.93)"><tspan x="0" y="0">N</tspan></text><text class="cls-3" transform="translate(1116.89 581.93)"><tspan x="0" y="0">M</tspan></text><text class="cls-3" transform="translate(323.63 236.36)"><tspan x="0" y="0">2</tspan></text><text class="cls-3" transform="translate(450.63 236.36)"><tspan x="0" y="0">3</tspan></text><text class="cls-3" transform="translate(578.63 236.36)"><tspan x="0" y="0">4</tspan></text><text class="cls-3" transform="translate(705.63 236.36)"><tspan x="0" y="0">5</tspan></text><text class="cls-3" transform="translate(833.63 236.36)"><tspan x="0" y="0">6</tspan></text><text class="cls-3" transform="translate(960.56 236.36)"><tspan x="0" y="0">7</tspan></text><text class="cls-3" transform="translate(1088.63 236.36)"><tspan x="0" y="0">8</tspan></text><text class="cls-3" transform="translate(1216.63 236.36)"><tspan x="0" y="0">9</tspan></text><text class="cls-3" transform="translate(1343.63 236.36)"><tspan x="0" y="0">0</tspan></text><g><path class="cls-8" d="M1802.67,64.72c3.19,1.84,5.17,5.26,5.17,8.95,0,5.67-4.66,10.33-10.33,10.33s-10.33-4.66-10.33-10.33c0-3.69,1.97-7.11,5.17-8.95"/><line class="cls-8" x1="1797.5" y1="75" x2="1797.5" y2="60"/></g><text class="cls-3" transform="translate(1251.81 600.63)"><tspan x="0" y="0">,</tspan></text><text class="cls-3" transform="translate(1247.63 559.08)"><tspan x="0" y="0">&lt;</tspan></text><text class="cls-3" transform="translate(1378.81 600.63)"><tspan x="0" y="0">.</tspan></text><text class="cls-3" transform="translate(1374.63 559.08)"><tspan x="0" y="0">&gt;</tspan></text><text class="cls-3" transform="translate(1503.19 600.63)"><tspan x="0" y="0">/</tspan></text><text class="cls-3" transform="translate(1503.94 559.08)"><tspan x="0" y="0">?</tspan></text></g></svg>